M48
; DRILL file {KiCad 5.1.5+dfsg1-2build2} date Do 12 Nov 2020 16:10:15
; FORMAT={-:-/ absolute / inch / decimal}
; #@! TF.CreationDate,2020-11-12T16:10:15+01:00
; #@! TF.GenerationSoftware,Kicad,Pcbnew,5.1.5+dfsg1-2build2
; #@! TF.FileFunction,Plated,1,4,PTH
FMAT,2
INCH
T1C0.0118
T2C0.0236
T3C0.0256
T4C0.0295
T5C0.0394
T6C0.0866
%
G90
G05
T1
X4.293Y-1.097
X4.293Y-1.297
X4.293Y-2.697
X4.313Y-2.057
X4.313Y-2.217
X4.323Y-1.927
X4.393Y-1.857
X4.423Y-2.347
X4.443Y-2.097
X4.473Y-2.217
X4.473Y-2.497
X4.483Y-2.347
X4.503Y-1.137
X4.513Y-2.447
X4.563Y-1.087
X4.563Y-1.257
X4.563Y-1.367
X4.563Y-1.457
X4.5805Y-2.252
X4.583Y-1.937
X4.583Y-2.097
X4.585Y-1.591
X4.585Y-1.633
X4.623Y-1.797
X4.638Y-2.347
X4.643Y-1.137
X4.643Y-2.487
X4.643Y-2.547
X4.663Y-1.237
X4.663Y-1.387
X4.663Y-1.547
X4.663Y-1.697
X4.663Y-1.887
X4.663Y-1.987
X4.663Y-2.447
X4.683Y-2.035
X4.697Y-1.167
X4.703Y-1.427
X4.703Y-1.467
X4.717Y-1.195
X4.721Y-2.035
X4.723Y-2.447
X4.733Y-1.737
X4.743Y-1.087
X4.743Y-1.287
X4.743Y-1.387
X4.743Y-1.507
X4.743Y-1.887
X4.743Y-1.987
X4.753Y-1.647
X4.793Y-1.527
X4.793Y-2.157
X4.793Y-2.697
X4.8036Y-1.3384
X4.813Y-2.617
X4.8155Y-1.257
X4.819Y-2.245
X4.833Y-1.397
X4.833Y-2.507
X4.843Y-0.847
X4.843Y-2.157
X4.8505Y-1.237
X4.875Y-1.077
X4.883Y-1.257
X4.883Y-1.867
X4.903Y-1.961
X4.903Y-2.497
X4.907Y-1.397
X4.913Y-2.157
X4.913Y-2.217
X4.913Y-2.287
X4.913Y-2.367
X4.928Y-1.6145
X4.939Y-1.129
X4.943Y-1.807
X4.9497Y-2.1297
X4.953Y-1.317
X4.953Y-1.937
X4.9605Y-1.5995
X4.993Y-2.157
X4.993Y-2.217
X4.993Y-2.287
X4.997Y-1.967
X5.013Y-1.287
X5.013Y-1.347
X5.015Y-1.529
X5.017Y-1.129
X5.023Y-1.937
X5.033Y-1.427
X5.033Y-2.367
X5.033Y-2.527
X5.035Y-2.269
X5.053Y-1.657
X5.053Y-1.797
X5.053Y-1.857
X5.063Y-1.127
X5.063Y-1.287
X5.063Y-1.387
X5.079Y-2.293
X5.093Y-2.697
X5.105Y-1.989
X5.123Y-1.137
X5.123Y-1.287
X5.123Y-1.417
X5.123Y-1.657
X5.123Y-1.737
X5.123Y-1.797
X5.123Y-1.937
X5.123Y-2.317
X5.127Y-1.505
X5.153Y-2.367
X5.157Y-2.219
X5.163Y-2.549
X5.173Y-2.617
X5.1827Y-1.681
X5.183Y-2.517
X5.205Y-2.023
X5.213Y-2.367
X5.213Y-2.437
X5.229Y-2.221
X5.233Y-2.567
X5.261Y-2.147
X5.273Y-2.437
X5.283Y-2.347
X5.289Y-2.221
X5.313Y-1.825
X5.313Y-2.383
X5.323Y-1.287
X5.323Y-1.417
X5.323Y-1.497
X5.333Y-1.137
X5.343Y-2.037
X5.343Y-2.097
X5.343Y-2.597
X5.353Y-2.353
X5.371Y-2.147
X5.403Y-1.287
X5.403Y-1.417
X5.403Y-2.097
X5.407Y-1.605
X5.407Y-1.845
X5.413Y-1.137
X5.423Y-2.667
X5.441Y-1.217
X5.441Y-1.467
X5.443Y-0.847
X5.443Y-1.809
X5.443Y-1.875
X5.443Y-2.347
X5.453Y-2.547
X5.459Y-1.439
X5.463Y-1.067
X5.477Y-1.237
X5.483Y-2.667
X5.485Y-2.475
X5.493Y-2.173
X5.503Y-1.137
X5.511Y-1.217
X5.513Y-2.397
X5.519Y-2.197
X5.528Y-2.347
X5.5408Y-1.6385
X5.553Y-1.287
X5.553Y-1.347
X5.5645Y-1.6148
X5.565Y-1.911
X5.573Y-1.847
X5.573Y-2.197
X5.579Y-2.083
X5.583Y-1.137
X5.587Y-1.541
X5.593Y-2.347
X5.593Y-2.407
X5.597Y-1.763
X5.611Y-2.221
X5.635Y-1.179
X5.635Y-1.545
X5.643Y-1.777
X5.653Y-2.177
X5.653Y-2.397
X5.659Y-1.967
X5.659Y-2.003
X5.663Y-1.161
X5.663Y-1.525
X5.6705Y-1.847
X5.683Y-1.127
X5.687Y-2.435
X5.6877Y-2.2063
X5.697Y-1.491
X5.699Y-2.009
X5.703Y-1.287
X5.705Y-1.951
X5.708Y-1.8095
X5.708Y-1.847
X5.708Y-1.8845
X5.709Y-2.043
X5.713Y-1.081
X5.713Y-1.707
X5.723Y-2.347
X5.725Y-1.623
X5.725Y-2.177
X5.731Y-1.175
X5.731Y-1.449
X5.731Y-2.075
X5.737Y-1.979
X5.743Y-1.7745
X5.743Y-1.8095
X5.743Y-1.847
X5.743Y-1.882
X5.743Y-1.9195
X5.757Y-1.471
X5.757Y-2.501
X5.7724Y-1.9852
X5.778Y-1.8095
X5.778Y-1.847
X5.7805Y-1.882
X5.783Y-1.167
X5.783Y-1.287
X5.783Y-1.367
X5.783Y-2.435
X5.789Y-1.709
X5.795Y-2.397
X5.803Y-2.597
X5.8155Y-1.847
X5.817Y-1.975
X5.823Y-2.177
X5.823Y-2.347
X5.8306Y-1.9261
X5.833Y-2.437
X5.833Y-2.507
X5.835Y-2.231
X5.843Y-2.657
X5.849Y-1.535
X5.849Y-2.263
X5.851Y-1.975
X5.853Y-1.167
X5.853Y-1.287
X5.853Y-1.367
X5.853Y-1.447
X5.865Y-2.293
X5.867Y-1.779
X5.883Y-1.743
X5.889Y-2.317
X5.901Y-1.899
X5.903Y-2.417
X5.919Y-1.607
X5.919Y-2.077
X5.921Y-1.139
X5.923Y-2.207
X5.923Y-2.267
X5.933Y-1.287
X5.933Y-1.367
X5.933Y-1.447
X5.933Y-1.641
X5.933Y-2.475
X5.953Y-2.237
X5.953Y-2.347
X5.959Y-1.173
X5.959Y-1.493
X5.959Y-1.831
X5.963Y-1.057
X5.971Y-1.655
X5.983Y-0.917
X5.983Y-2.539
X5.985Y-2.105
X5.993Y-0.847
X5.993Y-1.177
X5.993Y-2.577
X6.003Y-1.127
X6.007Y-2.423
X6.0073Y-2.1927
X6.023Y-1.287
X6.023Y-1.367
X6.023Y-1.447
X6.023Y-1.547
X6.025Y-1.649
X6.032Y-1.728
X6.035Y-2.079
X6.047Y-1.857
X6.054Y-1.788
X6.057Y-1.7544
X6.061Y-1.9503
X6.061Y-1.9837
X6.063Y-1.177
X6.063Y-1.579
X6.063Y-2.537
X6.065Y-1.701
X6.073Y-2.079
X6.073Y-2.489
X6.097Y-2.129
X6.103Y-2.187
X6.103Y-2.237
X6.103Y-2.347
X6.103Y-2.457
X6.133Y-1.097
X6.165Y-1.079
X6.173Y-1.027
X6.173Y-1.367
X6.173Y-1.447
X6.173Y-1.557
X6.173Y-1.647
X6.173Y-1.985
X6.183Y-1.177
X6.189Y-2.023
X6.197Y-1.857
X6.201Y-2.105
X6.221Y-1.729
X6.223Y-2.055
X6.223Y-2.337
X6.223Y-2.627
X6.233Y-1.417
X6.233Y-1.517
X6.243Y-0.877
X6.243Y-0.947
X6.243Y-1.237
X6.247Y-1.675
X6.273Y-2.687
X6.293Y-1.127
X6.293Y-1.167
X6.293Y-1.207
X6.293Y-1.277
X6.293Y-1.397
X6.293Y-1.437
X6.293Y-1.487
X6.293Y-1.867
X6.293Y-1.907
X6.293Y-1.957
X6.293Y-1.997
X6.293Y-2.137
X6.293Y-2.177
X6.293Y-2.227
X6.293Y-2.267
X6.293Y-2.557
X6.323Y-1.027
X6.333Y-1.127
X6.333Y-2.267
X6.341Y-1.395
X6.341Y-1.815
X6.353Y-2.337
X6.353Y-2.607
X6.355Y-2.031
X6.355Y-2.079
X6.355Y-2.131
X6.363Y-2.497
X6.373Y-1.127
X6.377Y-1.895
X6.379Y-1.475
X6.381Y-1.729
X6.383Y-2.267
X6.3998Y-1.5218
X6.401Y-1.967
X6.407Y-2.201
X6.413Y-0.987
X6.415Y-1.563
X6.419Y-1.4202
X6.423Y-1.467
X6.433Y-2.267
X6.433Y-2.587
X6.443Y-0.847
X6.447Y-1.363
X6.453Y-1.127
X6.453Y-2.497
X6.459Y-1.565
X6.463Y-1.677
X6.467Y-1.599
X6.471Y-1.063
X6.471Y-1.725
X6.473Y-1.017
X6.473Y-1.803
X6.483Y-2.167
X6.483Y-2.227
X6.483Y-2.267
X6.483Y-2.337
X6.483Y-2.407
X6.483Y-2.457
X6.493Y-2.697
X6.508Y-1.437
X6.508Y-1.472
X6.508Y-1.507
X6.513Y-1.857
X6.513Y-1.957
X6.5455Y-1.437
X6.5455Y-1.472
X6.5455Y-1.507
X6.563Y-1.747
X6.5805Y-1.437
X6.5805Y-1.472
X6.5805Y-1.507
X6.583Y-2.167
X6.583Y-2.227
X6.589Y-1.317
X6.593Y-1.127
X6.593Y-2.267
X6.593Y-2.377
X6.593Y-2.427
X6.613Y-1.867
X6.613Y-1.917
X6.623Y-2.337
X6.629Y-2.205
X6.641Y-1.545
X6.653Y-1.127
X6.653Y-2.267
X6.663Y-1.837
X6.673Y-1.513
X6.673Y-1.567
X6.673Y-2.627
X6.693Y-0.877
X6.693Y-0.947
X6.693Y-2.047
X6.693Y-2.137
X6.693Y-2.467
X6.703Y-1.127
X6.707Y-1.353
X6.713Y-2.267
X6.718Y-2.197
X6.737Y-1.373
X6.743Y-1.947
X6.743Y-2.337
X6.765Y-1.353
X6.773Y-1.423
X6.773Y-1.471
X6.773Y-1.641
X6.773Y-2.397
X6.783Y-2.537
X6.793Y-1.872
X6.793Y-2.047
X6.793Y-2.697
X6.803Y-1.177
X6.803Y-1.267
X6.803Y-1.337
X6.803Y-1.397
X6.818Y-2.197
X6.833Y-1.127
X6.833Y-2.097
X6.833Y-2.267
X6.843Y-0.847
X6.843Y-2.337
X6.863Y-1.317
X6.869Y-1.835
X6.873Y-1.977
X6.873Y-2.267
X6.883Y-1.397
X6.893Y-1.127
X6.893Y-1.717
X6.913Y-1.247
X6.913Y-2.017
X6.913Y-2.267
X6.913Y-2.427
X6.918Y-2.122
X6.943Y-1.127
X6.951Y-1.941
X6.953Y-1.187
X6.963Y-1.397
X6.963Y-1.767
X6.963Y-2.217
X6.993Y-2.337
X7.003Y-1.127
X7.013Y-1.167
X7.013Y-1.207
X7.013Y-1.247
X7.013Y-1.407
X7.013Y-1.447
X7.013Y-1.487
X7.013Y-1.527
X7.013Y-1.637
X7.013Y-1.677
X7.013Y-1.717
X7.013Y-1.757
X7.013Y-1.977
X7.013Y-2.107
X7.013Y-2.147
X7.068Y-1.047
X7.068Y-1.322
X7.068Y-1.572
X7.068Y-1.822
X7.068Y-2.347
X7.068Y-2.597
T3
X5.543Y-2.597
X5.543Y-2.647
X5.593Y-2.597
X5.593Y-2.647
X5.643Y-2.597
X5.643Y-2.647
X5.693Y-2.597
X5.693Y-2.647
X5.743Y-2.597
X5.743Y-2.647
T4
X4.493Y-1.197
X4.493Y-1.2757
X4.493Y-1.957
X4.493Y-2.0357
T5
X5.943Y-2.622
X6.043Y-2.622
X6.143Y-2.622
X4.593Y-0.897
X4.593Y-0.997
X4.693Y-0.897
X4.693Y-0.997
X4.793Y-0.897
X4.793Y-0.997
X4.893Y-0.897
X4.893Y-0.997
X4.993Y-0.897
X4.993Y-0.997
X5.093Y-0.897
X5.093Y-0.997
X5.193Y-0.897
X5.193Y-0.997
X5.293Y-0.897
X5.293Y-0.997
X5.393Y-0.897
X5.393Y-0.997
X5.493Y-0.897
X5.493Y-0.997
X5.593Y-0.897
X5.593Y-0.997
X5.693Y-0.897
X5.693Y-0.997
X5.793Y-0.897
X5.793Y-0.997
X5.893Y-0.897
X5.893Y-0.997
T6
X6.953Y-2.597
X6.953Y-0.942
X4.393Y-0.942
X4.393Y-2.597
T2
G00X4.3363Y-1.4469
M15
G01X4.2851Y-1.4469
M16
G05
G00X4.3363Y-1.7871
M15
G01X4.2851Y-1.7871
M16
G05
G00X4.481Y-1.4469
M15
G01X4.4416Y-1.4469
M16
G05
G00X4.481Y-1.7871
M15
G01X4.4416Y-1.7871
M16
G05
T0
M30
